<svg xmlns="http://www.w3.org/2000/svg" width="224.978" height="133.024" viewBox="0 0 59.525 35.196"><path style="fill:var(--svg-fill-color, #000);stroke-width:.08475142" d="m-82.019 77.968-.93-.933 3.156-3.157 3.156-3.157-.898-.898-.899-.899.82-.817c.452-.45.847-.818.878-.818s1.277 1.22 2.768 2.712l2.71 2.711-.845.848-.845.849-.913-.91-.913-.91-3.157 3.156-3.158 3.156zm-43.625-.003c-1.61-.27-3.214-1.349-4.187-2.812-1.067-1.605-1.254-3.758-.476-5.474.563-1.242 1.737-2.47 2.92-3.054.997-.492 1.677-.633 2.823-.584 1.56.067 2.858.654 3.983 1.8 1.925 1.963 2.352 4.692 1.09 6.972-1.234 2.227-3.81 3.547-6.153 3.152m2.41-2.945a3.45 3.45 0 0 0 1.519-1.52c.17-.344.2-.534.2-1.253.002-.782-.02-.89-.268-1.4-.331-.676-1.037-1.406-1.703-1.76-1.565-.835-3.425-.296-4.234 1.226-.667 1.254-.448 2.668.588 3.802 1.091 1.193 2.601 1.544 3.899.905m34.95-3.292c-2.3-2.296-2.342-2.344-2.193-2.51.084-.094 1.886-1.902 4.005-4.02l3.852-3.849 2.376 2.376 2.376 2.376-.845.849-.846.848-1.443-1.44c-.793-.793-1.473-1.442-1.51-1.442-.111 0-1.42 1.298-1.391 1.381.014.042.614.664 1.334 1.382l1.309 1.306-.802.805-.802.805-1.316-1.314c-.724-.722-1.345-1.314-1.381-1.314-.094 0-1.5 1.398-1.5 1.491 0 .044.629.707 1.398 1.476.769.768 1.398 1.437 1.398 1.488 0 .098-1.52 1.647-1.617 1.647-.032 0-1.114-1.053-2.403-2.34m-28.186-2.371c-.513-.137-1.157-.498-1.6-.896l-.287-.257.88-.88c.484-.484.908-.881.944-.882.035 0 .218.111.405.247.657.476 1.4.413 2.067-.175.71-.624.839-1.3.351-1.832-.283-.308-.305-.317-.869-.31-.475.007-.736.073-1.468.371-2.003.817-2.899 1.02-3.76.854-.655-.127-1.125-.398-1.583-.913-1.216-1.367-1.106-3.254.277-4.733.68-.727 1.226-1.114 1.912-1.356 1.024-.362 2.231-.217 3.083.369.656.451.666.403-.268 1.334l-.842.838-.332-.186c-.61-.343-1.318-.174-1.86.442-.458.522-.438 1.237.044 1.552.347.227.847.152 2.033-.307 1.659-.64 2.305-.802 3.247-.808.748-.006.849.014 1.375.273.972.479 1.638 1.308 1.853 2.308.39 1.824-1.654 4.494-3.823 4.991a4 4 0 0 1-1.78-.044m23.296-2.497-.856-.854 1.804-1.837c.992-1.01 1.936-1.963 2.097-2.115s.275-.297.252-.32-.629.25-1.347.606c-2 .994-4.243 2.068-4.319 2.068-.037 0-.435-.354-.884-.787l-.816-.786.461-.972c.254-.535.766-1.602 1.138-2.37 1.03-2.133 1.144-2.382 1.108-2.419-.019-.018-.966.9-2.106 2.04s-2.11 2.073-2.158 2.073-.463-.386-.922-.859l-.835-.858 4.014-4.015 4.014-4.014 1.187 1.187 1.187 1.188-1.794 3.58c-.987 1.968-1.788 3.585-1.78 3.592s1.611-.808 3.563-1.811l3.549-1.825 1.197 1.197 1.197 1.197-3.983 3.984c-2.19 2.19-4.012 3.983-4.047 3.983s-.45-.384-.92-.853m-18.931-7.537-3.982-3.983.887-.89c.488-.49.922-.89.965-.89s1.43 1.353 3.083 3.008 3.032 3.009 3.063 3.009.685-.629 1.452-1.397c.768-.768 1.435-1.397 1.482-1.398.048-.001.483.395.967.881l.88.884-2.38 2.38c-1.31 1.308-2.393 2.379-2.408 2.379s-1.819-1.792-4.01-3.983m8.263-3.777c-.257-.066-.829-.302-1.272-.523-.659-.33-.936-.534-1.525-1.124-.815-.815-1.258-1.514-1.586-2.5-.195-.588-.225-.821-.227-1.738-.002-.942.024-1.135.234-1.737.288-.83.616-1.416 1.152-2.057.784-.939 1.994-1.717 3.139-2.02.723-.19 2.06-.189 2.797.003 2.774.724 4.816 3.47 4.636 6.236-.159 2.459-1.988 4.697-4.412 5.399-.79.229-2.18.258-2.936.061m2.316-2.622c.908-.237 1.618-.824 2.1-1.738.173-.327.201-.5.202-1.228 0-.78-.021-.894-.273-1.424-.659-1.392-2.136-2.292-3.522-2.147-1.029.108-2.043.814-2.495 1.738-.207.423-.234.572-.235 1.324 0 .776.022.895.267 1.411.476 1.006 1.577 1.903 2.576 2.098.57.112.845.105 1.38-.034" transform="translate(130.783 -43.705)"/></svg>